<mxfile host="Electron" agent="Mozilla/5.0 (X11; Linux x86_64) AppleWebKit/537.36 (KHTML, like Gecko) draw.io/26.0.4 Chrome/128.0.6613.186 Electron/32.2.5 Safari/537.36" version="26.0.4">
  <diagram id="C5RBs43oDa-KdzZeNtuy" name="Page-1">
    <mxGraphModel dx="838" dy="940" grid="1" gridSize="10" guides="1" tooltips="1" connect="1" arrows="1" fold="1" page="1" pageScale="1" pageWidth="3000" pageHeight="3000" math="0" shadow="0">
      <root>
        <mxCell id="WIyWlLk6GJQsqaUBKTNV-0" />
        <mxCell id="WIyWlLk6GJQsqaUBKTNV-1" parent="WIyWlLk6GJQsqaUBKTNV-0" />
        <mxCell id="4TRNi6pCDRtCIutJIhP7-2" value="" style="edgeStyle=orthogonalEdgeStyle;rounded=0;orthogonalLoop=1;jettySize=auto;html=1;entryX=0.5;entryY=0;entryDx=0;entryDy=0;" edge="1" parent="WIyWlLk6GJQsqaUBKTNV-1" source="4TRNi6pCDRtCIutJIhP7-0" target="4TRNi6pCDRtCIutJIhP7-1">
          <mxGeometry relative="1" as="geometry" />
        </mxCell>
        <mxCell id="4TRNi6pCDRtCIutJIhP7-0" value="Finish" style="ellipse;whiteSpace=wrap;html=1;" vertex="1" parent="WIyWlLk6GJQsqaUBKTNV-1">
          <mxGeometry x="100" y="50" width="80" height="40" as="geometry" />
        </mxCell>
        <mxCell id="4TRNi6pCDRtCIutJIhP7-30" style="edgeStyle=orthogonalEdgeStyle;rounded=0;orthogonalLoop=1;jettySize=auto;html=1;" edge="1" parent="WIyWlLk6GJQsqaUBKTNV-1" source="4TRNi6pCDRtCIutJIhP7-1" target="4TRNi6pCDRtCIutJIhP7-29">
          <mxGeometry relative="1" as="geometry" />
        </mxCell>
        <mxCell id="4TRNi6pCDRtCIutJIhP7-1" value="ask_final_cleaned" style="rounded=1;whiteSpace=wrap;html=1;" vertex="1" parent="WIyWlLk6GJQsqaUBKTNV-1">
          <mxGeometry x="80" y="130" width="120" height="60" as="geometry" />
        </mxCell>
        <mxCell id="4TRNi6pCDRtCIutJIhP7-37" style="edgeStyle=orthogonalEdgeStyle;rounded=0;orthogonalLoop=1;jettySize=auto;html=1;entryX=0.5;entryY=0;entryDx=0;entryDy=0;" edge="1" parent="WIyWlLk6GJQsqaUBKTNV-1" source="4TRNi6pCDRtCIutJIhP7-3" target="4TRNi6pCDRtCIutJIhP7-36">
          <mxGeometry relative="1" as="geometry" />
        </mxCell>
        <mxCell id="4TRNi6pCDRtCIutJIhP7-3" value="ask_base_cleaned" style="rounded=1;whiteSpace=wrap;html=1;" vertex="1" parent="WIyWlLk6GJQsqaUBKTNV-1">
          <mxGeometry x="270" y="235" width="120" height="60" as="geometry" />
        </mxCell>
        <mxCell id="4TRNi6pCDRtCIutJIhP7-43" style="edgeStyle=orthogonalEdgeStyle;rounded=0;orthogonalLoop=1;jettySize=auto;html=1;entryX=0.5;entryY=0;entryDx=0;entryDy=0;" edge="1" parent="WIyWlLk6GJQsqaUBKTNV-1" source="4TRNi6pCDRtCIutJIhP7-5" target="4TRNi6pCDRtCIutJIhP7-42">
          <mxGeometry relative="1" as="geometry" />
        </mxCell>
        <mxCell id="4TRNi6pCDRtCIutJIhP7-5" value="ask_dock_has_bag" style="rounded=1;whiteSpace=wrap;html=1;" vertex="1" parent="WIyWlLk6GJQsqaUBKTNV-1">
          <mxGeometry x="270" y="435" width="120" height="60" as="geometry" />
        </mxCell>
        <mxCell id="4TRNi6pCDRtCIutJIhP7-57" style="edgeStyle=orthogonalEdgeStyle;rounded=0;orthogonalLoop=1;jettySize=auto;html=1;entryX=0.5;entryY=0;entryDx=0;entryDy=0;" edge="1" parent="WIyWlLk6GJQsqaUBKTNV-1" source="4TRNi6pCDRtCIutJIhP7-6" target="4TRNi6pCDRtCIutJIhP7-9">
          <mxGeometry relative="1" as="geometry" />
        </mxCell>
        <mxCell id="4TRNi6pCDRtCIutJIhP7-6" value="ask_emptied_tank" style="rounded=1;whiteSpace=wrap;html=1;" vertex="1" parent="WIyWlLk6GJQsqaUBKTNV-1">
          <mxGeometry x="270" y="780" width="120" height="60" as="geometry" />
        </mxCell>
        <mxCell id="4TRNi6pCDRtCIutJIhP7-26" style="edgeStyle=orthogonalEdgeStyle;rounded=0;orthogonalLoop=1;jettySize=auto;html=1;entryX=1;entryY=0.5;entryDx=0;entryDy=0;" edge="1" parent="WIyWlLk6GJQsqaUBKTNV-1" source="4TRNi6pCDRtCIutJIhP7-7" target="4TRNi6pCDRtCIutJIhP7-25">
          <mxGeometry relative="1" as="geometry" />
        </mxCell>
        <mxCell id="4TRNi6pCDRtCIutJIhP7-7" value="ask_emptied_dock" style="rounded=1;whiteSpace=wrap;html=1;" vertex="1" parent="WIyWlLk6GJQsqaUBKTNV-1">
          <mxGeometry x="270" y="670" width="120" height="60" as="geometry" />
        </mxCell>
        <mxCell id="4TRNi6pCDRtCIutJIhP7-59" style="edgeStyle=orthogonalEdgeStyle;rounded=0;orthogonalLoop=1;jettySize=auto;html=1;" edge="1" parent="WIyWlLk6GJQsqaUBKTNV-1" source="4TRNi6pCDRtCIutJIhP7-8" target="4TRNi6pCDRtCIutJIhP7-11">
          <mxGeometry relative="1" as="geometry" />
        </mxCell>
        <mxCell id="4TRNi6pCDRtCIutJIhP7-8" value="ask_sidebrush" style="rounded=1;whiteSpace=wrap;html=1;" vertex="1" parent="WIyWlLk6GJQsqaUBKTNV-1">
          <mxGeometry x="80" y="970" width="120" height="60" as="geometry" />
        </mxCell>
        <mxCell id="4TRNi6pCDRtCIutJIhP7-58" style="edgeStyle=orthogonalEdgeStyle;rounded=0;orthogonalLoop=1;jettySize=auto;html=1;entryX=1;entryY=0.5;entryDx=0;entryDy=0;" edge="1" parent="WIyWlLk6GJQsqaUBKTNV-1" source="4TRNi6pCDRtCIutJIhP7-9" target="4TRNi6pCDRtCIutJIhP7-8">
          <mxGeometry relative="1" as="geometry">
            <Array as="points">
              <mxPoint x="330" y="1000" />
            </Array>
          </mxGeometry>
        </mxCell>
        <mxCell id="4TRNi6pCDRtCIutJIhP7-9" value="ask_has_pad" style="rounded=1;whiteSpace=wrap;html=1;" vertex="1" parent="WIyWlLk6GJQsqaUBKTNV-1">
          <mxGeometry x="270" y="890" width="120" height="60" as="geometry" />
        </mxCell>
        <mxCell id="4TRNi6pCDRtCIutJIhP7-68" style="edgeStyle=orthogonalEdgeStyle;rounded=0;orthogonalLoop=1;jettySize=auto;html=1;entryX=0.5;entryY=0;entryDx=0;entryDy=0;" edge="1" parent="WIyWlLk6GJQsqaUBKTNV-1" source="4TRNi6pCDRtCIutJIhP7-11" target="4TRNi6pCDRtCIutJIhP7-67">
          <mxGeometry relative="1" as="geometry" />
        </mxCell>
        <mxCell id="4TRNi6pCDRtCIutJIhP7-11" value="ask_tight_screws" style="rounded=1;whiteSpace=wrap;html=1;" vertex="1" parent="WIyWlLk6GJQsqaUBKTNV-1">
          <mxGeometry x="80" y="1080" width="120" height="60" as="geometry" />
        </mxCell>
        <mxCell id="4TRNi6pCDRtCIutJIhP7-61" style="edgeStyle=orthogonalEdgeStyle;rounded=0;orthogonalLoop=1;jettySize=auto;html=1;entryX=0.5;entryY=0;entryDx=0;entryDy=0;" edge="1" parent="WIyWlLk6GJQsqaUBKTNV-1" source="4TRNi6pCDRtCIutJIhP7-12" target="4TRNi6pCDRtCIutJIhP7-13">
          <mxGeometry relative="1" as="geometry" />
        </mxCell>
        <mxCell id="4TRNi6pCDRtCIutJIhP7-12" value="ask_double_check" style="rounded=1;whiteSpace=wrap;html=1;" vertex="1" parent="WIyWlLk6GJQsqaUBKTNV-1">
          <mxGeometry x="80" y="1280" width="120" height="60" as="geometry" />
        </mxCell>
        <mxCell id="4TRNi6pCDRtCIutJIhP7-62" style="edgeStyle=orthogonalEdgeStyle;rounded=0;orthogonalLoop=1;jettySize=auto;html=1;entryX=0.5;entryY=0;entryDx=0;entryDy=0;" edge="1" parent="WIyWlLk6GJQsqaUBKTNV-1" source="4TRNi6pCDRtCIutJIhP7-13" target="4TRNi6pCDRtCIutJIhP7-14">
          <mxGeometry relative="1" as="geometry" />
        </mxCell>
        <mxCell id="4TRNi6pCDRtCIutJIhP7-13" value="ask_shipping_mode" style="rounded=1;whiteSpace=wrap;html=1;" vertex="1" parent="WIyWlLk6GJQsqaUBKTNV-1">
          <mxGeometry x="80" y="1380" width="120" height="60" as="geometry" />
        </mxCell>
        <mxCell id="4TRNi6pCDRtCIutJIhP7-63" style="edgeStyle=orthogonalEdgeStyle;rounded=0;orthogonalLoop=1;jettySize=auto;html=1;entryX=0.5;entryY=0;entryDx=0;entryDy=0;" edge="1" parent="WIyWlLk6GJQsqaUBKTNV-1" source="4TRNi6pCDRtCIutJIhP7-14" target="4TRNi6pCDRtCIutJIhP7-15">
          <mxGeometry relative="1" as="geometry" />
        </mxCell>
        <mxCell id="4TRNi6pCDRtCIutJIhP7-14" value="ask_close_parts" style="rounded=1;whiteSpace=wrap;html=1;" vertex="1" parent="WIyWlLk6GJQsqaUBKTNV-1">
          <mxGeometry x="80" y="1480" width="120" height="60" as="geometry" />
        </mxCell>
        <mxCell id="4TRNi6pCDRtCIutJIhP7-64" style="edgeStyle=orthogonalEdgeStyle;rounded=0;orthogonalLoop=1;jettySize=auto;html=1;entryX=0.5;entryY=0;entryDx=0;entryDy=0;" edge="1" parent="WIyWlLk6GJQsqaUBKTNV-1" source="4TRNi6pCDRtCIutJIhP7-15" target="4TRNi6pCDRtCIutJIhP7-16">
          <mxGeometry relative="1" as="geometry" />
        </mxCell>
        <mxCell id="4TRNi6pCDRtCIutJIhP7-15" value="ask_tags_off" style="rounded=1;whiteSpace=wrap;html=1;" vertex="1" parent="WIyWlLk6GJQsqaUBKTNV-1">
          <mxGeometry x="80" y="1570" width="120" height="60" as="geometry" />
        </mxCell>
        <mxCell id="4TRNi6pCDRtCIutJIhP7-65" style="edgeStyle=orthogonalEdgeStyle;rounded=0;orthogonalLoop=1;jettySize=auto;html=1;entryX=0.5;entryY=0;entryDx=0;entryDy=0;" edge="1" parent="WIyWlLk6GJQsqaUBKTNV-1" source="4TRNi6pCDRtCIutJIhP7-16" target="4TRNi6pCDRtCIutJIhP7-18">
          <mxGeometry relative="1" as="geometry" />
        </mxCell>
        <mxCell id="4TRNi6pCDRtCIutJIhP7-16" value="ask_put_bin_back" style="rounded=1;whiteSpace=wrap;html=1;" vertex="1" parent="WIyWlLk6GJQsqaUBKTNV-1">
          <mxGeometry x="80" y="1660" width="120" height="60" as="geometry" />
        </mxCell>
        <mxCell id="4TRNi6pCDRtCIutJIhP7-193" style="edgeStyle=orthogonalEdgeStyle;rounded=0;orthogonalLoop=1;jettySize=auto;html=1;entryX=0.5;entryY=0;entryDx=0;entryDy=0;" edge="1" parent="WIyWlLk6GJQsqaUBKTNV-1" source="4TRNi6pCDRtCIutJIhP7-17" target="4TRNi6pCDRtCIutJIhP7-192">
          <mxGeometry relative="1" as="geometry" />
        </mxCell>
        <mxCell id="4TRNi6pCDRtCIutJIhP7-17" value="ask_put_bot_on_shelf" style="rounded=1;whiteSpace=wrap;html=1;" vertex="1" parent="WIyWlLk6GJQsqaUBKTNV-1">
          <mxGeometry x="70" y="1860" width="140" height="60" as="geometry" />
        </mxCell>
        <mxCell id="4TRNi6pCDRtCIutJIhP7-66" style="edgeStyle=orthogonalEdgeStyle;rounded=0;orthogonalLoop=1;jettySize=auto;html=1;entryX=0.5;entryY=0;entryDx=0;entryDy=0;" edge="1" parent="WIyWlLk6GJQsqaUBKTNV-1" source="4TRNi6pCDRtCIutJIhP7-18" target="4TRNi6pCDRtCIutJIhP7-17">
          <mxGeometry relative="1" as="geometry" />
        </mxCell>
        <mxCell id="4TRNi6pCDRtCIutJIhP7-18" value="ask_complete_case_CSS" style="rounded=1;whiteSpace=wrap;html=1;" vertex="1" parent="WIyWlLk6GJQsqaUBKTNV-1">
          <mxGeometry x="50" y="1760" width="180" height="60" as="geometry" />
        </mxCell>
        <mxCell id="4TRNi6pCDRtCIutJIhP7-50" style="edgeStyle=orthogonalEdgeStyle;rounded=0;orthogonalLoop=1;jettySize=auto;html=1;" edge="1" parent="WIyWlLk6GJQsqaUBKTNV-1" source="4TRNi6pCDRtCIutJIhP7-25" target="4TRNi6pCDRtCIutJIhP7-48">
          <mxGeometry relative="1" as="geometry" />
        </mxCell>
        <mxCell id="4TRNi6pCDRtCIutJIhP7-25" value="ask_emptied_bin" style="rounded=1;whiteSpace=wrap;html=1;" vertex="1" parent="WIyWlLk6GJQsqaUBKTNV-1">
          <mxGeometry x="80" y="670" width="120" height="60" as="geometry" />
        </mxCell>
        <mxCell id="4TRNi6pCDRtCIutJIhP7-32" style="edgeStyle=orthogonalEdgeStyle;rounded=0;orthogonalLoop=1;jettySize=auto;html=1;" edge="1" parent="WIyWlLk6GJQsqaUBKTNV-1" source="4TRNi6pCDRtCIutJIhP7-29" target="4TRNi6pCDRtCIutJIhP7-3">
          <mxGeometry relative="1" as="geometry" />
        </mxCell>
        <mxCell id="4TRNi6pCDRtCIutJIhP7-33" value="True" style="edgeLabel;html=1;align=center;verticalAlign=middle;resizable=0;points=[];" vertex="1" connectable="0" parent="4TRNi6pCDRtCIutJIhP7-32">
          <mxGeometry relative="1" as="geometry">
            <mxPoint as="offset" />
          </mxGeometry>
        </mxCell>
        <mxCell id="4TRNi6pCDRtCIutJIhP7-34" style="edgeStyle=orthogonalEdgeStyle;rounded=0;orthogonalLoop=1;jettySize=auto;html=1;entryX=0.5;entryY=0;entryDx=0;entryDy=0;" edge="1" parent="WIyWlLk6GJQsqaUBKTNV-1" source="4TRNi6pCDRtCIutJIhP7-29" target="4TRNi6pCDRtCIutJIhP7-25">
          <mxGeometry relative="1" as="geometry" />
        </mxCell>
        <mxCell id="4TRNi6pCDRtCIutJIhP7-35" value="False" style="edgeLabel;html=1;align=center;verticalAlign=middle;resizable=0;points=[];" vertex="1" connectable="0" parent="4TRNi6pCDRtCIutJIhP7-34">
          <mxGeometry x="-0.2653" y="5" relative="1" as="geometry">
            <mxPoint x="5" y="-114" as="offset" />
          </mxGeometry>
        </mxCell>
        <mxCell id="4TRNi6pCDRtCIutJIhP7-29" value="if dock" style="rhombus;whiteSpace=wrap;html=1;" vertex="1" parent="WIyWlLk6GJQsqaUBKTNV-1">
          <mxGeometry x="100" y="225" width="80" height="80" as="geometry" />
        </mxCell>
        <mxCell id="4TRNi6pCDRtCIutJIhP7-38" style="edgeStyle=orthogonalEdgeStyle;rounded=0;orthogonalLoop=1;jettySize=auto;html=1;entryX=0.5;entryY=0;entryDx=0;entryDy=0;" edge="1" parent="WIyWlLk6GJQsqaUBKTNV-1" source="4TRNi6pCDRtCIutJIhP7-36" target="4TRNi6pCDRtCIutJIhP7-5">
          <mxGeometry relative="1" as="geometry" />
        </mxCell>
        <mxCell id="4TRNi6pCDRtCIutJIhP7-39" value="True" style="edgeLabel;html=1;align=center;verticalAlign=middle;resizable=0;points=[];" vertex="1" connectable="0" parent="4TRNi6pCDRtCIutJIhP7-38">
          <mxGeometry x="0.1111" y="2" relative="1" as="geometry">
            <mxPoint as="offset" />
          </mxGeometry>
        </mxCell>
        <mxCell id="4TRNi6pCDRtCIutJIhP7-40" style="edgeStyle=orthogonalEdgeStyle;rounded=0;orthogonalLoop=1;jettySize=auto;html=1;" edge="1" parent="WIyWlLk6GJQsqaUBKTNV-1" source="4TRNi6pCDRtCIutJIhP7-36">
          <mxGeometry relative="1" as="geometry">
            <mxPoint x="140" y="360" as="targetPoint" />
          </mxGeometry>
        </mxCell>
        <mxCell id="4TRNi6pCDRtCIutJIhP7-41" value="False" style="edgeLabel;html=1;align=center;verticalAlign=middle;resizable=0;points=[];" vertex="1" connectable="0" parent="4TRNi6pCDRtCIutJIhP7-40">
          <mxGeometry x="-0.4286" y="-2" relative="1" as="geometry">
            <mxPoint x="-27" y="2" as="offset" />
          </mxGeometry>
        </mxCell>
        <mxCell id="4TRNi6pCDRtCIutJIhP7-36" value="if is_dock" style="rhombus;whiteSpace=wrap;html=1;" vertex="1" parent="WIyWlLk6GJQsqaUBKTNV-1">
          <mxGeometry x="290" y="320" width="80" height="80" as="geometry" />
        </mxCell>
        <mxCell id="4TRNi6pCDRtCIutJIhP7-44" style="edgeStyle=orthogonalEdgeStyle;rounded=0;orthogonalLoop=1;jettySize=auto;html=1;entryX=0.5;entryY=0;entryDx=0;entryDy=0;" edge="1" parent="WIyWlLk6GJQsqaUBKTNV-1" source="4TRNi6pCDRtCIutJIhP7-42" target="4TRNi6pCDRtCIutJIhP7-7">
          <mxGeometry relative="1" as="geometry" />
        </mxCell>
        <mxCell id="4TRNi6pCDRtCIutJIhP7-46" value="True" style="edgeLabel;html=1;align=center;verticalAlign=middle;resizable=0;points=[];" vertex="1" connectable="0" parent="4TRNi6pCDRtCIutJIhP7-44">
          <mxGeometry x="-0.3231" y="1" relative="1" as="geometry">
            <mxPoint as="offset" />
          </mxGeometry>
        </mxCell>
        <mxCell id="4TRNi6pCDRtCIutJIhP7-45" style="edgeStyle=orthogonalEdgeStyle;rounded=0;orthogonalLoop=1;jettySize=auto;html=1;" edge="1" parent="WIyWlLk6GJQsqaUBKTNV-1" source="4TRNi6pCDRtCIutJIhP7-42">
          <mxGeometry relative="1" as="geometry">
            <mxPoint x="140" y="565" as="targetPoint" />
          </mxGeometry>
        </mxCell>
        <mxCell id="4TRNi6pCDRtCIutJIhP7-47" value="False" style="edgeLabel;html=1;align=center;verticalAlign=middle;resizable=0;points=[];" vertex="1" connectable="0" parent="4TRNi6pCDRtCIutJIhP7-45">
          <mxGeometry x="-0.33" relative="1" as="geometry">
            <mxPoint x="-3" as="offset" />
          </mxGeometry>
        </mxCell>
        <mxCell id="4TRNi6pCDRtCIutJIhP7-42" value="&lt;span style=&quot;font-size: 11px; text-wrap: nowrap; background-color: rgb(255, 255, 255);&quot;&gt;if dock in (&#39;Aurora&#39;, &#39;Boulder&#39;)&lt;/span&gt;" style="rhombus;whiteSpace=wrap;html=1;" vertex="1" parent="WIyWlLk6GJQsqaUBKTNV-1">
          <mxGeometry x="235" y="525" width="190" height="80" as="geometry" />
        </mxCell>
        <mxCell id="4TRNi6pCDRtCIutJIhP7-52" style="edgeStyle=orthogonalEdgeStyle;rounded=0;orthogonalLoop=1;jettySize=auto;html=1;entryX=0;entryY=0.5;entryDx=0;entryDy=0;" edge="1" parent="WIyWlLk6GJQsqaUBKTNV-1" source="4TRNi6pCDRtCIutJIhP7-48" target="4TRNi6pCDRtCIutJIhP7-6">
          <mxGeometry relative="1" as="geometry" />
        </mxCell>
        <mxCell id="4TRNi6pCDRtCIutJIhP7-53" value="True" style="edgeLabel;html=1;align=center;verticalAlign=middle;resizable=0;points=[];" vertex="1" connectable="0" parent="4TRNi6pCDRtCIutJIhP7-52">
          <mxGeometry x="0.1778" y="-2" relative="1" as="geometry">
            <mxPoint as="offset" />
          </mxGeometry>
        </mxCell>
        <mxCell id="4TRNi6pCDRtCIutJIhP7-54" style="edgeStyle=orthogonalEdgeStyle;rounded=0;orthogonalLoop=1;jettySize=auto;html=1;entryX=0.5;entryY=0;entryDx=0;entryDy=0;" edge="1" parent="WIyWlLk6GJQsqaUBKTNV-1" source="4TRNi6pCDRtCIutJIhP7-48" target="4TRNi6pCDRtCIutJIhP7-8">
          <mxGeometry relative="1" as="geometry" />
        </mxCell>
        <mxCell id="4TRNi6pCDRtCIutJIhP7-55" value="False" style="edgeLabel;html=1;align=center;verticalAlign=middle;resizable=0;points=[];" vertex="1" connectable="0" parent="4TRNi6pCDRtCIutJIhP7-54">
          <mxGeometry x="-0.1667" y="-2" relative="1" as="geometry">
            <mxPoint as="offset" />
          </mxGeometry>
        </mxCell>
        <mxCell id="4TRNi6pCDRtCIutJIhP7-48" value="if is_mopping" style="rhombus;whiteSpace=wrap;html=1;" vertex="1" parent="WIyWlLk6GJQsqaUBKTNV-1">
          <mxGeometry x="100" y="770" width="80" height="80" as="geometry" />
        </mxCell>
        <mxCell id="4TRNi6pCDRtCIutJIhP7-69" style="edgeStyle=orthogonalEdgeStyle;rounded=0;orthogonalLoop=1;jettySize=auto;html=1;entryX=0.5;entryY=0;entryDx=0;entryDy=0;" edge="1" parent="WIyWlLk6GJQsqaUBKTNV-1" source="4TRNi6pCDRtCIutJIhP7-67" target="4TRNi6pCDRtCIutJIhP7-12">
          <mxGeometry relative="1" as="geometry" />
        </mxCell>
        <mxCell id="4TRNi6pCDRtCIutJIhP7-67" value="ask_debug_cover" style="rounded=1;whiteSpace=wrap;html=1;" vertex="1" parent="WIyWlLk6GJQsqaUBKTNV-1">
          <mxGeometry x="80" y="1180" width="120" height="60" as="geometry" />
        </mxCell>
        <mxCell id="4TRNi6pCDRtCIutJIhP7-72" style="edgeStyle=orthogonalEdgeStyle;rounded=0;orthogonalLoop=1;jettySize=auto;html=1;entryX=0.5;entryY=0;entryDx=0;entryDy=0;" edge="1" parent="WIyWlLk6GJQsqaUBKTNV-1" source="4TRNi6pCDRtCIutJIhP7-70" target="4TRNi6pCDRtCIutJIhP7-71">
          <mxGeometry relative="1" as="geometry" />
        </mxCell>
        <mxCell id="4TRNi6pCDRtCIutJIhP7-70" value="Confirm" style="ellipse;whiteSpace=wrap;html=1;" vertex="1" parent="WIyWlLk6GJQsqaUBKTNV-1">
          <mxGeometry x="560" y="50" width="80" height="40" as="geometry" />
        </mxCell>
        <mxCell id="4TRNi6pCDRtCIutJIhP7-74" style="edgeStyle=orthogonalEdgeStyle;rounded=0;orthogonalLoop=1;jettySize=auto;html=1;" edge="1" parent="WIyWlLk6GJQsqaUBKTNV-1" source="4TRNi6pCDRtCIutJIhP7-71" target="4TRNi6pCDRtCIutJIhP7-73">
          <mxGeometry relative="1" as="geometry" />
        </mxCell>
        <mxCell id="4TRNi6pCDRtCIutJIhP7-71" value="confirm_id" style="rounded=1;whiteSpace=wrap;html=1;" vertex="1" parent="WIyWlLk6GJQsqaUBKTNV-1">
          <mxGeometry x="540" y="120" width="120" height="60" as="geometry" />
        </mxCell>
        <mxCell id="4TRNi6pCDRtCIutJIhP7-76" style="edgeStyle=orthogonalEdgeStyle;rounded=0;orthogonalLoop=1;jettySize=auto;html=1;entryX=0;entryY=0.5;entryDx=0;entryDy=0;" edge="1" parent="WIyWlLk6GJQsqaUBKTNV-1" source="4TRNi6pCDRtCIutJIhP7-73" target="4TRNi6pCDRtCIutJIhP7-75">
          <mxGeometry relative="1" as="geometry" />
        </mxCell>
        <mxCell id="4TRNi6pCDRtCIutJIhP7-77" value="False" style="edgeLabel;html=1;align=center;verticalAlign=middle;resizable=0;points=[];" vertex="1" connectable="0" parent="4TRNi6pCDRtCIutJIhP7-76">
          <mxGeometry x="-0.1" relative="1" as="geometry">
            <mxPoint as="offset" />
          </mxGeometry>
        </mxCell>
        <mxCell id="4TRNi6pCDRtCIutJIhP7-79" value="True" style="edgeStyle=orthogonalEdgeStyle;rounded=0;orthogonalLoop=1;jettySize=auto;html=1;entryX=0.5;entryY=0;entryDx=0;entryDy=0;" edge="1" parent="WIyWlLk6GJQsqaUBKTNV-1" source="4TRNi6pCDRtCIutJIhP7-73" target="4TRNi6pCDRtCIutJIhP7-78">
          <mxGeometry relative="1" as="geometry" />
        </mxCell>
        <mxCell id="4TRNi6pCDRtCIutJIhP7-73" value="if identical" style="rhombus;whiteSpace=wrap;html=1;" vertex="1" parent="WIyWlLk6GJQsqaUBKTNV-1">
          <mxGeometry x="560" y="215" width="80" height="80" as="geometry" />
        </mxCell>
        <mxCell id="4TRNi6pCDRtCIutJIhP7-75" value="stuff" style="triangle;whiteSpace=wrap;html=1;" vertex="1" parent="WIyWlLk6GJQsqaUBKTNV-1">
          <mxGeometry x="700" y="215" width="60" height="80" as="geometry" />
        </mxCell>
        <mxCell id="4TRNi6pCDRtCIutJIhP7-81" style="edgeStyle=orthogonalEdgeStyle;rounded=0;orthogonalLoop=1;jettySize=auto;html=1;entryX=0.5;entryY=0;entryDx=0;entryDy=0;" edge="1" parent="WIyWlLk6GJQsqaUBKTNV-1" source="4TRNi6pCDRtCIutJIhP7-78" target="4TRNi6pCDRtCIutJIhP7-80">
          <mxGeometry relative="1" as="geometry" />
        </mxCell>
        <mxCell id="4TRNi6pCDRtCIutJIhP7-78" value="check_repeat" style="rounded=1;whiteSpace=wrap;html=1;" vertex="1" parent="WIyWlLk6GJQsqaUBKTNV-1">
          <mxGeometry x="540" y="330" width="120" height="60" as="geometry" />
        </mxCell>
        <mxCell id="4TRNi6pCDRtCIutJIhP7-83" style="edgeStyle=orthogonalEdgeStyle;rounded=0;orthogonalLoop=1;jettySize=auto;html=1;entryX=0.5;entryY=0;entryDx=0;entryDy=0;" edge="1" parent="WIyWlLk6GJQsqaUBKTNV-1" source="4TRNi6pCDRtCIutJIhP7-80" target="4TRNi6pCDRtCIutJIhP7-82">
          <mxGeometry relative="1" as="geometry" />
        </mxCell>
        <mxCell id="4TRNi6pCDRtCIutJIhP7-80" value="check_spl_sku" style="rounded=1;whiteSpace=wrap;html=1;" vertex="1" parent="WIyWlLk6GJQsqaUBKTNV-1">
          <mxGeometry x="540" y="430" width="120" height="60" as="geometry" />
        </mxCell>
        <mxCell id="4TRNi6pCDRtCIutJIhP7-86" style="edgeStyle=orthogonalEdgeStyle;rounded=0;orthogonalLoop=1;jettySize=auto;html=1;entryX=0.5;entryY=0;entryDx=0;entryDy=0;" edge="1" parent="WIyWlLk6GJQsqaUBKTNV-1" source="4TRNi6pCDRtCIutJIhP7-82" target="4TRNi6pCDRtCIutJIhP7-84">
          <mxGeometry relative="1" as="geometry" />
        </mxCell>
        <mxCell id="4TRNi6pCDRtCIutJIhP7-82" value="pick_up_case" style="rounded=1;whiteSpace=wrap;html=1;" vertex="1" parent="WIyWlLk6GJQsqaUBKTNV-1">
          <mxGeometry x="540" y="530" width="120" height="60" as="geometry" />
        </mxCell>
        <mxCell id="4TRNi6pCDRtCIutJIhP7-88" style="edgeStyle=orthogonalEdgeStyle;rounded=0;orthogonalLoop=1;jettySize=auto;html=1;" edge="1" parent="WIyWlLk6GJQsqaUBKTNV-1" source="4TRNi6pCDRtCIutJIhP7-84" target="4TRNi6pCDRtCIutJIhP7-87">
          <mxGeometry relative="1" as="geometry" />
        </mxCell>
        <mxCell id="4TRNi6pCDRtCIutJIhP7-84" value="ask_dock" style="rounded=1;whiteSpace=wrap;html=1;" vertex="1" parent="WIyWlLk6GJQsqaUBKTNV-1">
          <mxGeometry x="540" y="630" width="120" height="60" as="geometry" />
        </mxCell>
        <mxCell id="4TRNi6pCDRtCIutJIhP7-90" style="edgeStyle=orthogonalEdgeStyle;rounded=0;orthogonalLoop=1;jettySize=auto;html=1;" edge="1" parent="WIyWlLk6GJQsqaUBKTNV-1" source="4TRNi6pCDRtCIutJIhP7-87" target="4TRNi6pCDRtCIutJIhP7-89">
          <mxGeometry relative="1" as="geometry" />
        </mxCell>
        <mxCell id="4TRNi6pCDRtCIutJIhP7-87" value="ask_damage" style="rounded=1;whiteSpace=wrap;html=1;" vertex="1" parent="WIyWlLk6GJQsqaUBKTNV-1">
          <mxGeometry x="540" y="720" width="120" height="60" as="geometry" />
        </mxCell>
        <mxCell id="4TRNi6pCDRtCIutJIhP7-92" style="edgeStyle=orthogonalEdgeStyle;rounded=0;orthogonalLoop=1;jettySize=auto;html=1;entryX=0.5;entryY=0;entryDx=0;entryDy=0;" edge="1" parent="WIyWlLk6GJQsqaUBKTNV-1" source="4TRNi6pCDRtCIutJIhP7-89" target="4TRNi6pCDRtCIutJIhP7-91">
          <mxGeometry relative="1" as="geometry" />
        </mxCell>
        <mxCell id="4TRNi6pCDRtCIutJIhP7-89" value="customer_states" style="rounded=1;whiteSpace=wrap;html=1;" vertex="1" parent="WIyWlLk6GJQsqaUBKTNV-1">
          <mxGeometry x="540" y="810" width="120" height="60" as="geometry" />
        </mxCell>
        <mxCell id="4TRNi6pCDRtCIutJIhP7-91" value="Routine checks" style="ellipse;whiteSpace=wrap;html=1;" vertex="1" parent="WIyWlLk6GJQsqaUBKTNV-1">
          <mxGeometry x="540" y="920" width="120" height="80" as="geometry" />
        </mxCell>
        <mxCell id="4TRNi6pCDRtCIutJIhP7-95" style="edgeStyle=orthogonalEdgeStyle;rounded=0;orthogonalLoop=1;jettySize=auto;html=1;" edge="1" parent="WIyWlLk6GJQsqaUBKTNV-1" source="4TRNi6pCDRtCIutJIhP7-93" target="4TRNi6pCDRtCIutJIhP7-94">
          <mxGeometry relative="1" as="geometry" />
        </mxCell>
        <mxCell id="4TRNi6pCDRtCIutJIhP7-93" value="Routine Checks" style="ellipse;whiteSpace=wrap;html=1;" vertex="1" parent="WIyWlLk6GJQsqaUBKTNV-1">
          <mxGeometry x="910" y="50" width="120" height="80" as="geometry" />
        </mxCell>
        <mxCell id="4TRNi6pCDRtCIutJIhP7-97" style="edgeStyle=orthogonalEdgeStyle;rounded=0;orthogonalLoop=1;jettySize=auto;html=1;entryX=0.5;entryY=0;entryDx=0;entryDy=0;" edge="1" parent="WIyWlLk6GJQsqaUBKTNV-1" source="4TRNi6pCDRtCIutJIhP7-94" target="4TRNi6pCDRtCIutJIhP7-96">
          <mxGeometry relative="1" as="geometry" />
        </mxCell>
        <mxCell id="4TRNi6pCDRtCIutJIhP7-94" value="ask_sunken_contacts" style="rounded=1;whiteSpace=wrap;html=1;" vertex="1" parent="WIyWlLk6GJQsqaUBKTNV-1">
          <mxGeometry x="910" y="165" width="120" height="60" as="geometry" />
        </mxCell>
        <mxCell id="4TRNi6pCDRtCIutJIhP7-99" style="edgeStyle=orthogonalEdgeStyle;rounded=0;orthogonalLoop=1;jettySize=auto;html=1;entryX=0;entryY=0.5;entryDx=0;entryDy=0;" edge="1" parent="WIyWlLk6GJQsqaUBKTNV-1" source="4TRNi6pCDRtCIutJIhP7-96" target="4TRNi6pCDRtCIutJIhP7-98">
          <mxGeometry relative="1" as="geometry" />
        </mxCell>
        <mxCell id="4TRNi6pCDRtCIutJIhP7-100" value="True" style="edgeLabel;html=1;align=center;verticalAlign=middle;resizable=0;points=[];" vertex="1" connectable="0" parent="4TRNi6pCDRtCIutJIhP7-99">
          <mxGeometry x="-0.0867" y="1" relative="1" as="geometry">
            <mxPoint as="offset" />
          </mxGeometry>
        </mxCell>
        <mxCell id="4TRNi6pCDRtCIutJIhP7-103" style="edgeStyle=orthogonalEdgeStyle;rounded=0;orthogonalLoop=1;jettySize=auto;html=1;entryX=0.5;entryY=0;entryDx=0;entryDy=0;" edge="1" parent="WIyWlLk6GJQsqaUBKTNV-1" source="4TRNi6pCDRtCIutJIhP7-96" target="4TRNi6pCDRtCIutJIhP7-101">
          <mxGeometry relative="1" as="geometry" />
        </mxCell>
        <mxCell id="4TRNi6pCDRtCIutJIhP7-108" value="False or &#39;na&#39;" style="edgeLabel;html=1;align=center;verticalAlign=middle;resizable=0;points=[];" vertex="1" connectable="0" parent="4TRNi6pCDRtCIutJIhP7-103">
          <mxGeometry x="-0.35" y="4" relative="1" as="geometry">
            <mxPoint as="offset" />
          </mxGeometry>
        </mxCell>
        <mxCell id="4TRNi6pCDRtCIutJIhP7-96" value="if resp" style="rhombus;whiteSpace=wrap;html=1;" vertex="1" parent="WIyWlLk6GJQsqaUBKTNV-1">
          <mxGeometry x="930" y="250" width="80" height="80" as="geometry" />
        </mxCell>
        <mxCell id="4TRNi6pCDRtCIutJIhP7-98" value="ask_sunken_side" style="rounded=1;whiteSpace=wrap;html=1;" vertex="1" parent="WIyWlLk6GJQsqaUBKTNV-1">
          <mxGeometry x="1310" y="260" width="120" height="60" as="geometry" />
        </mxCell>
        <mxCell id="4TRNi6pCDRtCIutJIhP7-106" value="True" style="edgeStyle=orthogonalEdgeStyle;rounded=0;orthogonalLoop=1;jettySize=auto;html=1;entryX=0;entryY=0.5;entryDx=0;entryDy=0;" edge="1" parent="WIyWlLk6GJQsqaUBKTNV-1" source="4TRNi6pCDRtCIutJIhP7-101" target="4TRNi6pCDRtCIutJIhP7-104">
          <mxGeometry relative="1" as="geometry" />
        </mxCell>
        <mxCell id="4TRNi6pCDRtCIutJIhP7-107" value="False" style="edgeStyle=orthogonalEdgeStyle;rounded=0;orthogonalLoop=1;jettySize=auto;html=1;entryX=0.5;entryY=0;entryDx=0;entryDy=0;" edge="1" parent="WIyWlLk6GJQsqaUBKTNV-1" source="4TRNi6pCDRtCIutJIhP7-101" target="4TRNi6pCDRtCIutJIhP7-105">
          <mxGeometry relative="1" as="geometry" />
        </mxCell>
        <mxCell id="4TRNi6pCDRtCIutJIhP7-101" value="if not is_mopper" style="rhombus;whiteSpace=wrap;html=1;" vertex="1" parent="WIyWlLk6GJQsqaUBKTNV-1">
          <mxGeometry x="915" y="370" width="110" height="80" as="geometry" />
        </mxCell>
        <mxCell id="4TRNi6pCDRtCIutJIhP7-110" style="edgeStyle=orthogonalEdgeStyle;rounded=0;orthogonalLoop=1;jettySize=auto;html=1;" edge="1" parent="WIyWlLk6GJQsqaUBKTNV-1" source="4TRNi6pCDRtCIutJIhP7-104" target="4TRNi6pCDRtCIutJIhP7-109">
          <mxGeometry relative="1" as="geometry" />
        </mxCell>
        <mxCell id="4TRNi6pCDRtCIutJIhP7-104" value="check_liquid_damage" style="rounded=1;whiteSpace=wrap;html=1;" vertex="1" parent="WIyWlLk6GJQsqaUBKTNV-1">
          <mxGeometry x="1100" y="380" width="120" height="60" as="geometry" />
        </mxCell>
        <mxCell id="4TRNi6pCDRtCIutJIhP7-119" style="edgeStyle=orthogonalEdgeStyle;rounded=0;orthogonalLoop=1;jettySize=auto;html=1;entryX=0.5;entryY=0;entryDx=0;entryDy=0;" edge="1" parent="WIyWlLk6GJQsqaUBKTNV-1" source="4TRNi6pCDRtCIutJIhP7-105" target="4TRNi6pCDRtCIutJIhP7-116">
          <mxGeometry relative="1" as="geometry" />
        </mxCell>
        <mxCell id="4TRNi6pCDRtCIutJIhP7-105" value="ask_blower_play" style="rounded=1;whiteSpace=wrap;html=1;" vertex="1" parent="WIyWlLk6GJQsqaUBKTNV-1">
          <mxGeometry x="910" y="530" width="120" height="60" as="geometry" />
        </mxCell>
        <mxCell id="4TRNi6pCDRtCIutJIhP7-111" value="True" style="edgeStyle=orthogonalEdgeStyle;rounded=0;orthogonalLoop=1;jettySize=auto;html=1;" edge="1" parent="WIyWlLk6GJQsqaUBKTNV-1" source="4TRNi6pCDRtCIutJIhP7-109">
          <mxGeometry relative="1" as="geometry">
            <mxPoint x="1310" y="560" as="targetPoint" />
          </mxGeometry>
        </mxCell>
        <mxCell id="4TRNi6pCDRtCIutJIhP7-114" value="False or &#39;na&#39;" style="edgeStyle=orthogonalEdgeStyle;rounded=0;orthogonalLoop=1;jettySize=auto;html=1;entryX=1;entryY=0.5;entryDx=0;entryDy=0;" edge="1" parent="WIyWlLk6GJQsqaUBKTNV-1" source="4TRNi6pCDRtCIutJIhP7-109" target="4TRNi6pCDRtCIutJIhP7-105">
          <mxGeometry relative="1" as="geometry" />
        </mxCell>
        <mxCell id="4TRNi6pCDRtCIutJIhP7-109" value="if resp" style="rhombus;whiteSpace=wrap;html=1;" vertex="1" parent="WIyWlLk6GJQsqaUBKTNV-1">
          <mxGeometry x="1120" y="520" width="80" height="80" as="geometry" />
        </mxCell>
        <mxCell id="4TRNi6pCDRtCIutJIhP7-163" style="edgeStyle=orthogonalEdgeStyle;rounded=0;orthogonalLoop=1;jettySize=auto;html=1;entryX=0.5;entryY=0;entryDx=0;entryDy=0;" edge="1" parent="WIyWlLk6GJQsqaUBKTNV-1" source="4TRNi6pCDRtCIutJIhP7-115" target="4TRNi6pCDRtCIutJIhP7-162">
          <mxGeometry relative="1" as="geometry" />
        </mxCell>
        <mxCell id="4TRNi6pCDRtCIutJIhP7-177" style="edgeStyle=orthogonalEdgeStyle;rounded=0;orthogonalLoop=1;jettySize=auto;html=1;entryX=0;entryY=0.5;entryDx=0;entryDy=0;" edge="1" parent="WIyWlLk6GJQsqaUBKTNV-1" source="4TRNi6pCDRtCIutJIhP7-115" target="4TRNi6pCDRtCIutJIhP7-176">
          <mxGeometry relative="1" as="geometry" />
        </mxCell>
        <mxCell id="4TRNi6pCDRtCIutJIhP7-115" value="liquid_check_corrosion" style="rounded=1;whiteSpace=wrap;html=1;" vertex="1" parent="WIyWlLk6GJQsqaUBKTNV-1">
          <mxGeometry x="1310" y="530" width="140" height="60" as="geometry" />
        </mxCell>
        <mxCell id="4TRNi6pCDRtCIutJIhP7-118" value="True" style="edgeStyle=orthogonalEdgeStyle;rounded=0;orthogonalLoop=1;jettySize=auto;html=1;entryX=0;entryY=0.5;entryDx=0;entryDy=0;" edge="1" parent="WIyWlLk6GJQsqaUBKTNV-1" source="4TRNi6pCDRtCIutJIhP7-116" target="4TRNi6pCDRtCIutJIhP7-117">
          <mxGeometry relative="1" as="geometry" />
        </mxCell>
        <mxCell id="4TRNi6pCDRtCIutJIhP7-121" value="False" style="edgeStyle=orthogonalEdgeStyle;rounded=0;orthogonalLoop=1;jettySize=auto;html=1;entryX=0.5;entryY=0;entryDx=0;entryDy=0;" edge="1" parent="WIyWlLk6GJQsqaUBKTNV-1" source="4TRNi6pCDRtCIutJIhP7-116" target="4TRNi6pCDRtCIutJIhP7-120">
          <mxGeometry relative="1" as="geometry" />
        </mxCell>
        <mxCell id="4TRNi6pCDRtCIutJIhP7-116" value="if is_combo" style="rhombus;whiteSpace=wrap;html=1;" vertex="1" parent="WIyWlLk6GJQsqaUBKTNV-1">
          <mxGeometry x="930" y="640" width="80" height="80" as="geometry" />
        </mxCell>
        <mxCell id="4TRNi6pCDRtCIutJIhP7-129" style="edgeStyle=orthogonalEdgeStyle;rounded=0;orthogonalLoop=1;jettySize=auto;html=1;entryX=1;entryY=0.5;entryDx=0;entryDy=0;" edge="1" parent="WIyWlLk6GJQsqaUBKTNV-1" source="4TRNi6pCDRtCIutJIhP7-117" target="4TRNi6pCDRtCIutJIhP7-120">
          <mxGeometry relative="1" as="geometry">
            <Array as="points">
              <mxPoint x="1160" y="830" />
            </Array>
          </mxGeometry>
        </mxCell>
        <mxCell id="4TRNi6pCDRtCIutJIhP7-117" value="ask_bin_rust" style="rounded=1;whiteSpace=wrap;html=1;" vertex="1" parent="WIyWlLk6GJQsqaUBKTNV-1">
          <mxGeometry x="1100" y="650" width="120" height="60" as="geometry" />
        </mxCell>
        <mxCell id="4TRNi6pCDRtCIutJIhP7-123" style="edgeStyle=orthogonalEdgeStyle;rounded=0;orthogonalLoop=1;jettySize=auto;html=1;entryX=0.5;entryY=0;entryDx=0;entryDy=0;" edge="1" parent="WIyWlLk6GJQsqaUBKTNV-1" source="4TRNi6pCDRtCIutJIhP7-120" target="4TRNi6pCDRtCIutJIhP7-122">
          <mxGeometry relative="1" as="geometry" />
        </mxCell>
        <mxCell id="4TRNi6pCDRtCIutJIhP7-120" value="cleaning/lid pins" style="shape=hexagon;perimeter=hexagonPerimeter2;whiteSpace=wrap;html=1;fixedSize=1;" vertex="1" parent="WIyWlLk6GJQsqaUBKTNV-1">
          <mxGeometry x="910" y="790" width="120" height="80" as="geometry" />
        </mxCell>
        <mxCell id="4TRNi6pCDRtCIutJIhP7-126" style="edgeStyle=orthogonalEdgeStyle;rounded=0;orthogonalLoop=1;jettySize=auto;html=1;entryX=0;entryY=0.5;entryDx=0;entryDy=0;" edge="1" parent="WIyWlLk6GJQsqaUBKTNV-1" source="4TRNi6pCDRtCIutJIhP7-122" target="4TRNi6pCDRtCIutJIhP7-124">
          <mxGeometry relative="1" as="geometry" />
        </mxCell>
        <mxCell id="4TRNi6pCDRtCIutJIhP7-128" value="False" style="edgeStyle=orthogonalEdgeStyle;rounded=0;orthogonalLoop=1;jettySize=auto;html=1;entryX=0.5;entryY=0;entryDx=0;entryDy=0;" edge="1" parent="WIyWlLk6GJQsqaUBKTNV-1" source="4TRNi6pCDRtCIutJIhP7-122" target="4TRNi6pCDRtCIutJIhP7-125">
          <mxGeometry relative="1" as="geometry" />
        </mxCell>
        <mxCell id="4TRNi6pCDRtCIutJIhP7-122" value="if S9" style="rhombus;whiteSpace=wrap;html=1;" vertex="1" parent="WIyWlLk6GJQsqaUBKTNV-1">
          <mxGeometry x="930" y="910" width="80" height="80" as="geometry" />
        </mxCell>
        <mxCell id="4TRNi6pCDRtCIutJIhP7-127" value="True" style="edgeStyle=orthogonalEdgeStyle;rounded=0;orthogonalLoop=1;jettySize=auto;html=1;" edge="1" parent="WIyWlLk6GJQsqaUBKTNV-1" source="4TRNi6pCDRtCIutJIhP7-124" target="4TRNi6pCDRtCIutJIhP7-122">
          <mxGeometry relative="1" as="geometry" />
        </mxCell>
        <mxCell id="4TRNi6pCDRtCIutJIhP7-130" style="edgeStyle=orthogonalEdgeStyle;rounded=0;orthogonalLoop=1;jettySize=auto;html=1;entryX=1;entryY=0.5;entryDx=0;entryDy=0;" edge="1" parent="WIyWlLk6GJQsqaUBKTNV-1" source="4TRNi6pCDRtCIutJIhP7-124" target="4TRNi6pCDRtCIutJIhP7-125">
          <mxGeometry relative="1" as="geometry">
            <Array as="points">
              <mxPoint x="1160" y="1070" />
            </Array>
          </mxGeometry>
        </mxCell>
        <mxCell id="4TRNi6pCDRtCIutJIhP7-124" value="ask_s9_lid_pins" style="rounded=1;whiteSpace=wrap;html=1;" vertex="1" parent="WIyWlLk6GJQsqaUBKTNV-1">
          <mxGeometry x="1100" y="920" width="120" height="60" as="geometry" />
        </mxCell>
        <mxCell id="4TRNi6pCDRtCIutJIhP7-132" style="edgeStyle=orthogonalEdgeStyle;rounded=0;orthogonalLoop=1;jettySize=auto;html=1;entryX=0.5;entryY=0;entryDx=0;entryDy=0;" edge="1" parent="WIyWlLk6GJQsqaUBKTNV-1" source="4TRNi6pCDRtCIutJIhP7-125" target="4TRNi6pCDRtCIutJIhP7-131">
          <mxGeometry relative="1" as="geometry" />
        </mxCell>
        <mxCell id="4TRNi6pCDRtCIutJIhP7-125" value="ask_cleaned" style="rounded=1;whiteSpace=wrap;html=1;" vertex="1" parent="WIyWlLk6GJQsqaUBKTNV-1">
          <mxGeometry x="910" y="1040" width="120" height="60" as="geometry" />
        </mxCell>
        <mxCell id="4TRNi6pCDRtCIutJIhP7-136" style="edgeStyle=orthogonalEdgeStyle;rounded=0;orthogonalLoop=1;jettySize=auto;html=1;entryX=0.5;entryY=0;entryDx=0;entryDy=0;" edge="1" parent="WIyWlLk6GJQsqaUBKTNV-1" source="4TRNi6pCDRtCIutJIhP7-131" target="4TRNi6pCDRtCIutJIhP7-134">
          <mxGeometry relative="1" as="geometry" />
        </mxCell>
        <mxCell id="4TRNi6pCDRtCIutJIhP7-131" value="ask_rollers" style="rounded=1;whiteSpace=wrap;html=1;" vertex="1" parent="WIyWlLk6GJQsqaUBKTNV-1">
          <mxGeometry x="910" y="1150" width="120" height="60" as="geometry" />
        </mxCell>
        <mxCell id="4TRNi6pCDRtCIutJIhP7-150" style="edgeStyle=orthogonalEdgeStyle;rounded=0;orthogonalLoop=1;jettySize=auto;html=1;entryX=1;entryY=0.5;entryDx=0;entryDy=0;" edge="1" parent="WIyWlLk6GJQsqaUBKTNV-1" source="4TRNi6pCDRtCIutJIhP7-133" target="4TRNi6pCDRtCIutJIhP7-139">
          <mxGeometry relative="1" as="geometry">
            <Array as="points">
              <mxPoint x="1180" y="1420" />
            </Array>
          </mxGeometry>
        </mxCell>
        <mxCell id="4TRNi6pCDRtCIutJIhP7-133" value="ask_user_base_contacts" style="rounded=1;whiteSpace=wrap;html=1;" vertex="1" parent="WIyWlLk6GJQsqaUBKTNV-1">
          <mxGeometry x="1100" y="1270" width="160" height="60" as="geometry" />
        </mxCell>
        <mxCell id="4TRNi6pCDRtCIutJIhP7-135" value="True" style="edgeStyle=orthogonalEdgeStyle;rounded=0;orthogonalLoop=1;jettySize=auto;html=1;entryX=0;entryY=0.5;entryDx=0;entryDy=0;" edge="1" parent="WIyWlLk6GJQsqaUBKTNV-1" source="4TRNi6pCDRtCIutJIhP7-134" target="4TRNi6pCDRtCIutJIhP7-133">
          <mxGeometry relative="1" as="geometry" />
        </mxCell>
        <mxCell id="4TRNi6pCDRtCIutJIhP7-138" value="False" style="edgeStyle=orthogonalEdgeStyle;rounded=0;orthogonalLoop=1;jettySize=auto;html=1;entryX=0.5;entryY=0;entryDx=0;entryDy=0;" edge="1" parent="WIyWlLk6GJQsqaUBKTNV-1" source="4TRNi6pCDRtCIutJIhP7-134">
          <mxGeometry relative="1" as="geometry">
            <mxPoint x="970" y="1380" as="targetPoint" />
          </mxGeometry>
        </mxCell>
        <mxCell id="4TRNi6pCDRtCIutJIhP7-134" value="if dock" style="rhombus;whiteSpace=wrap;html=1;" vertex="1" parent="WIyWlLk6GJQsqaUBKTNV-1">
          <mxGeometry x="930" y="1260" width="80" height="80" as="geometry" />
        </mxCell>
        <mxCell id="4TRNi6pCDRtCIutJIhP7-149" style="edgeStyle=orthogonalEdgeStyle;rounded=0;orthogonalLoop=1;jettySize=auto;html=1;entryX=0.5;entryY=0;entryDx=0;entryDy=0;" edge="1" parent="WIyWlLk6GJQsqaUBKTNV-1" source="4TRNi6pCDRtCIutJIhP7-139" target="4TRNi6pCDRtCIutJIhP7-140">
          <mxGeometry relative="1" as="geometry" />
        </mxCell>
        <mxCell id="4TRNi6pCDRtCIutJIhP7-139" value="battery_test/charging" style="shape=hexagon;perimeter=hexagonPerimeter2;whiteSpace=wrap;html=1;fixedSize=1;" vertex="1" parent="WIyWlLk6GJQsqaUBKTNV-1">
          <mxGeometry x="910" y="1380" width="120" height="80" as="geometry" />
        </mxCell>
        <mxCell id="4TRNi6pCDRtCIutJIhP7-142" value="True" style="edgeStyle=orthogonalEdgeStyle;rounded=0;orthogonalLoop=1;jettySize=auto;html=1;entryX=0;entryY=0.5;entryDx=0;entryDy=0;" edge="1" parent="WIyWlLk6GJQsqaUBKTNV-1" source="4TRNi6pCDRtCIutJIhP7-140" target="4TRNi6pCDRtCIutJIhP7-141">
          <mxGeometry relative="1" as="geometry" />
        </mxCell>
        <mxCell id="4TRNi6pCDRtCIutJIhP7-144" style="edgeStyle=orthogonalEdgeStyle;rounded=0;orthogonalLoop=1;jettySize=auto;html=1;entryX=0.5;entryY=0;entryDx=0;entryDy=0;" edge="1" parent="WIyWlLk6GJQsqaUBKTNV-1" source="4TRNi6pCDRtCIutJIhP7-140" target="4TRNi6pCDRtCIutJIhP7-143">
          <mxGeometry relative="1" as="geometry" />
        </mxCell>
        <mxCell id="4TRNi6pCDRtCIutJIhP7-140" value="if &#39;charg&#39; or &#39;batt&#39; in customer_states&lt;div&gt;and dock&lt;/div&gt;" style="rhombus;whiteSpace=wrap;html=1;" vertex="1" parent="WIyWlLk6GJQsqaUBKTNV-1">
          <mxGeometry x="835" y="1510" width="270" height="80" as="geometry" />
        </mxCell>
        <mxCell id="4TRNi6pCDRtCIutJIhP7-141" value="battery_test" style="rounded=1;whiteSpace=wrap;html=1;" vertex="1" parent="WIyWlLk6GJQsqaUBKTNV-1">
          <mxGeometry x="1170" y="1520" width="120" height="60" as="geometry" />
        </mxCell>
        <mxCell id="4TRNi6pCDRtCIutJIhP7-147" value="True" style="edgeStyle=orthogonalEdgeStyle;rounded=0;orthogonalLoop=1;jettySize=auto;html=1;entryX=0;entryY=0.5;entryDx=0;entryDy=0;" edge="1" parent="WIyWlLk6GJQsqaUBKTNV-1" source="4TRNi6pCDRtCIutJIhP7-143" target="4TRNi6pCDRtCIutJIhP7-145">
          <mxGeometry relative="1" as="geometry">
            <Array as="points">
              <mxPoint x="1070" y="1690" />
              <mxPoint x="1070" y="1780" />
            </Array>
          </mxGeometry>
        </mxCell>
        <mxCell id="4TRNi6pCDRtCIutJIhP7-148" value="False" style="edgeStyle=orthogonalEdgeStyle;rounded=0;orthogonalLoop=1;jettySize=auto;html=1;entryX=0.5;entryY=0;entryDx=0;entryDy=0;" edge="1" parent="WIyWlLk6GJQsqaUBKTNV-1" source="4TRNi6pCDRtCIutJIhP7-143" target="4TRNi6pCDRtCIutJIhP7-146">
          <mxGeometry relative="1" as="geometry" />
        </mxCell>
        <mxCell id="4TRNi6pCDRtCIutJIhP7-143" value="if dock" style="rhombus;whiteSpace=wrap;html=1;" vertex="1" parent="WIyWlLk6GJQsqaUBKTNV-1">
          <mxGeometry x="930" y="1630" width="80" height="80" as="geometry" />
        </mxCell>
        <mxCell id="4TRNi6pCDRtCIutJIhP7-161" style="edgeStyle=orthogonalEdgeStyle;rounded=0;orthogonalLoop=1;jettySize=auto;html=1;entryX=1;entryY=0.5;entryDx=0;entryDy=0;" edge="1" parent="WIyWlLk6GJQsqaUBKTNV-1" source="4TRNi6pCDRtCIutJIhP7-145" target="4TRNi6pCDRtCIutJIhP7-159">
          <mxGeometry relative="1" as="geometry">
            <Array as="points">
              <mxPoint x="1220" y="1885" />
            </Array>
          </mxGeometry>
        </mxCell>
        <mxCell id="4TRNi6pCDRtCIutJIhP7-145" value="ask_charge_customer_dock" style="rounded=1;whiteSpace=wrap;html=1;" vertex="1" parent="WIyWlLk6GJQsqaUBKTNV-1">
          <mxGeometry x="1130" y="1750" width="180" height="60" as="geometry" />
        </mxCell>
        <mxCell id="4TRNi6pCDRtCIutJIhP7-160" style="edgeStyle=orthogonalEdgeStyle;rounded=0;orthogonalLoop=1;jettySize=auto;html=1;entryX=0.5;entryY=0;entryDx=0;entryDy=0;" edge="1" parent="WIyWlLk6GJQsqaUBKTNV-1" source="4TRNi6pCDRtCIutJIhP7-146" target="4TRNi6pCDRtCIutJIhP7-159">
          <mxGeometry relative="1" as="geometry" />
        </mxCell>
        <mxCell id="4TRNi6pCDRtCIutJIhP7-146" value="ask_charge_test_dock" style="rounded=1;whiteSpace=wrap;html=1;" vertex="1" parent="WIyWlLk6GJQsqaUBKTNV-1">
          <mxGeometry x="900" y="1750" width="140" height="60" as="geometry" />
        </mxCell>
        <mxCell id="4TRNi6pCDRtCIutJIhP7-151" style="edgeStyle=orthogonalEdgeStyle;rounded=0;orthogonalLoop=1;jettySize=auto;html=1;entryX=0.825;entryY=0.363;entryDx=0;entryDy=0;entryPerimeter=0;" edge="1" parent="WIyWlLk6GJQsqaUBKTNV-1" source="4TRNi6pCDRtCIutJIhP7-141" target="4TRNi6pCDRtCIutJIhP7-143">
          <mxGeometry relative="1" as="geometry">
            <Array as="points">
              <mxPoint x="1230" y="1610" />
              <mxPoint x="1050" y="1610" />
              <mxPoint x="1050" y="1659" />
            </Array>
          </mxGeometry>
        </mxCell>
        <mxCell id="4TRNi6pCDRtCIutJIhP7-159" value="Debugging" style="ellipse;whiteSpace=wrap;html=1;" vertex="1" parent="WIyWlLk6GJQsqaUBKTNV-1">
          <mxGeometry x="925" y="1860" width="90" height="50" as="geometry" />
        </mxCell>
        <mxCell id="4TRNi6pCDRtCIutJIhP7-167" style="edgeStyle=orthogonalEdgeStyle;rounded=0;orthogonalLoop=1;jettySize=auto;html=1;entryX=0.5;entryY=0;entryDx=0;entryDy=0;" edge="1" parent="WIyWlLk6GJQsqaUBKTNV-1" source="4TRNi6pCDRtCIutJIhP7-162" target="4TRNi6pCDRtCIutJIhP7-164">
          <mxGeometry relative="1" as="geometry" />
        </mxCell>
        <mxCell id="4TRNi6pCDRtCIutJIhP7-162" value="liquid check dock or bin" style="shape=hexagon;perimeter=hexagonPerimeter2;whiteSpace=wrap;html=1;fixedSize=1;" vertex="1" parent="WIyWlLk6GJQsqaUBKTNV-1">
          <mxGeometry x="1305" y="640" width="150" height="80" as="geometry" />
        </mxCell>
        <mxCell id="4TRNi6pCDRtCIutJIhP7-168" value="True" style="edgeStyle=orthogonalEdgeStyle;rounded=0;orthogonalLoop=1;jettySize=auto;html=1;entryX=0;entryY=0.5;entryDx=0;entryDy=0;" edge="1" parent="WIyWlLk6GJQsqaUBKTNV-1" source="4TRNi6pCDRtCIutJIhP7-164" target="4TRNi6pCDRtCIutJIhP7-165">
          <mxGeometry relative="1" as="geometry" />
        </mxCell>
        <mxCell id="4TRNi6pCDRtCIutJIhP7-169" value="False" style="edgeStyle=orthogonalEdgeStyle;rounded=0;orthogonalLoop=1;jettySize=auto;html=1;entryX=0.5;entryY=0;entryDx=0;entryDy=0;" edge="1" parent="WIyWlLk6GJQsqaUBKTNV-1" source="4TRNi6pCDRtCIutJIhP7-164" target="4TRNi6pCDRtCIutJIhP7-166">
          <mxGeometry relative="1" as="geometry" />
        </mxCell>
        <mxCell id="4TRNi6pCDRtCIutJIhP7-164" value="if dock" style="rhombus;whiteSpace=wrap;html=1;" vertex="1" parent="WIyWlLk6GJQsqaUBKTNV-1">
          <mxGeometry x="1340" y="760" width="80" height="80" as="geometry" />
        </mxCell>
        <mxCell id="4TRNi6pCDRtCIutJIhP7-170" style="edgeStyle=orthogonalEdgeStyle;rounded=0;orthogonalLoop=1;jettySize=auto;html=1;entryX=1;entryY=0.5;entryDx=0;entryDy=0;" edge="1" parent="WIyWlLk6GJQsqaUBKTNV-1" source="4TRNi6pCDRtCIutJIhP7-165" target="4TRNi6pCDRtCIutJIhP7-166">
          <mxGeometry relative="1" as="geometry">
            <Array as="points">
              <mxPoint x="1530" y="920" />
            </Array>
          </mxGeometry>
        </mxCell>
        <mxCell id="4TRNi6pCDRtCIutJIhP7-165" value="liquid_check_dock" style="rounded=1;whiteSpace=wrap;html=1;" vertex="1" parent="WIyWlLk6GJQsqaUBKTNV-1">
          <mxGeometry x="1470" y="770" width="120" height="60" as="geometry" />
        </mxCell>
        <mxCell id="4TRNi6pCDRtCIutJIhP7-173" style="edgeStyle=orthogonalEdgeStyle;rounded=0;orthogonalLoop=1;jettySize=auto;html=1;entryX=0.5;entryY=0;entryDx=0;entryDy=0;" edge="1" parent="WIyWlLk6GJQsqaUBKTNV-1" source="4TRNi6pCDRtCIutJIhP7-166" target="4TRNi6pCDRtCIutJIhP7-171">
          <mxGeometry relative="1" as="geometry" />
        </mxCell>
        <mxCell id="4TRNi6pCDRtCIutJIhP7-166" value="liquid_check_bin" style="rounded=1;whiteSpace=wrap;html=1;" vertex="1" parent="WIyWlLk6GJQsqaUBKTNV-1">
          <mxGeometry x="1320" y="890" width="120" height="60" as="geometry" />
        </mxCell>
        <mxCell id="4TRNi6pCDRtCIutJIhP7-181" style="edgeStyle=orthogonalEdgeStyle;rounded=0;orthogonalLoop=1;jettySize=auto;html=1;" edge="1" parent="WIyWlLk6GJQsqaUBKTNV-1" source="4TRNi6pCDRtCIutJIhP7-171" target="4TRNi6pCDRtCIutJIhP7-180">
          <mxGeometry relative="1" as="geometry" />
        </mxCell>
        <mxCell id="4TRNi6pCDRtCIutJIhP7-171" value="liquid_take_pictures" style="rounded=1;whiteSpace=wrap;html=1;" vertex="1" parent="WIyWlLk6GJQsqaUBKTNV-1">
          <mxGeometry x="1320" y="1000" width="120" height="60" as="geometry" />
        </mxCell>
        <mxCell id="4TRNi6pCDRtCIutJIhP7-174" value="_liquid_swap = True" style="ellipse;shape=cloud;whiteSpace=wrap;html=1;" vertex="1" parent="WIyWlLk6GJQsqaUBKTNV-1">
          <mxGeometry x="1610" y="525" width="170" height="80" as="geometry" />
        </mxCell>
        <mxCell id="4TRNi6pCDRtCIutJIhP7-179" style="edgeStyle=orthogonalEdgeStyle;rounded=0;orthogonalLoop=1;jettySize=auto;html=1;entryX=1;entryY=0.5;entryDx=0;entryDy=0;" edge="1" parent="WIyWlLk6GJQsqaUBKTNV-1" source="4TRNi6pCDRtCIutJIhP7-176" target="4TRNi6pCDRtCIutJIhP7-162">
          <mxGeometry relative="1" as="geometry">
            <Array as="points">
              <mxPoint x="1530" y="680" />
            </Array>
          </mxGeometry>
        </mxCell>
        <mxCell id="4TRNi6pCDRtCIutJIhP7-176" value="if resp" style="rhombus;whiteSpace=wrap;html=1;" vertex="1" parent="WIyWlLk6GJQsqaUBKTNV-1">
          <mxGeometry x="1490" y="520" width="80" height="80" as="geometry" />
        </mxCell>
        <mxCell id="4TRNi6pCDRtCIutJIhP7-178" value="True" style="edgeStyle=orthogonalEdgeStyle;rounded=0;orthogonalLoop=1;jettySize=auto;html=1;entryX=0.07;entryY=0.4;entryDx=0;entryDy=0;entryPerimeter=0;" edge="1" parent="WIyWlLk6GJQsqaUBKTNV-1" source="4TRNi6pCDRtCIutJIhP7-176" target="4TRNi6pCDRtCIutJIhP7-174">
          <mxGeometry relative="1" as="geometry" />
        </mxCell>
        <mxCell id="4TRNi6pCDRtCIutJIhP7-183" value="True" style="edgeStyle=orthogonalEdgeStyle;rounded=0;orthogonalLoop=1;jettySize=auto;html=1;" edge="1" parent="WIyWlLk6GJQsqaUBKTNV-1" source="4TRNi6pCDRtCIutJIhP7-180">
          <mxGeometry relative="1" as="geometry">
            <mxPoint x="1510" y="1150" as="targetPoint" />
          </mxGeometry>
        </mxCell>
        <mxCell id="4TRNi6pCDRtCIutJIhP7-185" style="edgeStyle=orthogonalEdgeStyle;rounded=0;orthogonalLoop=1;jettySize=auto;html=1;entryX=1;entryY=0.5;entryDx=0;entryDy=0;" edge="1" parent="WIyWlLk6GJQsqaUBKTNV-1" source="4TRNi6pCDRtCIutJIhP7-180" target="4TRNi6pCDRtCIutJIhP7-94">
          <mxGeometry relative="1" as="geometry">
            <Array as="points">
              <mxPoint x="1280" y="1150" />
              <mxPoint x="1280" y="195" />
            </Array>
          </mxGeometry>
        </mxCell>
        <mxCell id="4TRNi6pCDRtCIutJIhP7-186" value="False" style="edgeLabel;html=1;align=center;verticalAlign=middle;resizable=0;points=[];" vertex="1" connectable="0" parent="4TRNi6pCDRtCIutJIhP7-185">
          <mxGeometry x="-0.8474" y="2" relative="1" as="geometry">
            <mxPoint as="offset" />
          </mxGeometry>
        </mxCell>
        <mxCell id="4TRNi6pCDRtCIutJIhP7-180" value="if _liquid_swap" style="rhombus;whiteSpace=wrap;html=1;" vertex="1" parent="WIyWlLk6GJQsqaUBKTNV-1">
          <mxGeometry x="1320" y="1110" width="120" height="80" as="geometry" />
        </mxCell>
        <mxCell id="4TRNi6pCDRtCIutJIhP7-184" value="Swap" style="ellipse;whiteSpace=wrap;html=1;" vertex="1" parent="WIyWlLk6GJQsqaUBKTNV-1">
          <mxGeometry x="1510" y="1110" width="120" height="80" as="geometry" />
        </mxCell>
        <mxCell id="4TRNi6pCDRtCIutJIhP7-189" style="edgeStyle=orthogonalEdgeStyle;rounded=0;orthogonalLoop=1;jettySize=auto;html=1;entryX=0.5;entryY=0;entryDx=0;entryDy=0;" edge="1" parent="WIyWlLk6GJQsqaUBKTNV-1" source="4TRNi6pCDRtCIutJIhP7-187" target="4TRNi6pCDRtCIutJIhP7-188">
          <mxGeometry relative="1" as="geometry" />
        </mxCell>
        <mxCell id="4TRNi6pCDRtCIutJIhP7-187" value="Debugging" style="ellipse;whiteSpace=wrap;html=1;" vertex="1" parent="WIyWlLk6GJQsqaUBKTNV-1">
          <mxGeometry x="1940" y="30" width="120" height="80" as="geometry" />
        </mxCell>
        <mxCell id="4TRNi6pCDRtCIutJIhP7-188" value="add_step" style="rounded=1;whiteSpace=wrap;html=1;" vertex="1" parent="WIyWlLk6GJQsqaUBKTNV-1">
          <mxGeometry x="1940" y="165" width="120" height="60" as="geometry" />
        </mxCell>
        <mxCell id="4TRNi6pCDRtCIutJIhP7-190" style="edgeStyle=orthogonalEdgeStyle;rounded=0;orthogonalLoop=1;jettySize=auto;html=1;" edge="1" parent="WIyWlLk6GJQsqaUBKTNV-1" source="4TRNi6pCDRtCIutJIhP7-188" target="4TRNi6pCDRtCIutJIhP7-188">
          <mxGeometry relative="1" as="geometry" />
        </mxCell>
        <mxCell id="4TRNi6pCDRtCIutJIhP7-191" value="Swap" style="ellipse;whiteSpace=wrap;html=1;" vertex="1" parent="WIyWlLk6GJQsqaUBKTNV-1">
          <mxGeometry x="2300" y="30" width="120" height="80" as="geometry" />
        </mxCell>
        <mxCell id="4TRNi6pCDRtCIutJIhP7-192" value="finish_case" style="rounded=1;whiteSpace=wrap;html=1;" vertex="1" parent="WIyWlLk6GJQsqaUBKTNV-1">
          <mxGeometry x="80" y="1960" width="120" height="60" as="geometry" />
        </mxCell>
      </root>
    </mxGraphModel>
  </diagram>
</mxfile>
